Coordinates
version=1
nRows=14
nColumns=40
inDegrees=yes

Units are S.I. units (second, meters, Newtons, ...)
Angles are in degrees.

endheader
time	pelvis_tilt	pelvis_list	pelvis_rotation	pelvis_tx	pelvis_ty	pelvis_tz	hip_flexion_r	hip_adduction_r	hip_rotation_r	knee_angle_r	knee_angle_r_beta	ankle_angle_r	subtalar_angle_r	mtp_angle_r	hip_flexion_l	hip_adduction_l	hip_rotation_l	knee_angle_l	knee_angle_l_beta	ankle_angle_l	subtalar_angle_l	mtp_angle_l	lumbar_extension	lumbar_bending	lumbar_rotation	arm_flex_r	arm_add_r	arm_rot_r	elbow_flex_r	pro_sup_r	wrist_flex_r	wrist_dev_r	arm_flex_l	arm_add_l	arm_rot_l	elbow_flex_l	pro_sup_l	wrist_flex_l	wrist_dev_l
      0.98000000	     -1.47042234	     -4.43764789	     -2.89552956	      1.10924335	      0.93136117	      0.46455929	     16.17575510	      1.39399749	     -8.39127868	     19.39792604	     19.39792604	      6.83537222	     -0.43951241	     -2.66073141	      1.04639679	    -10.00386402	    -12.74190536	     25.28836661	     25.28836661	     17.38545224	     -8.54847462	     -2.40884412	     -8.99247139	      5.46326974	     -0.16230297	      1.25838558	    -15.66761641	     -4.39818761	     48.96650881	     44.95338046	      0.00000000	      0.00000000	     15.40725118	    -15.59071012	     -7.20689397	     51.83069513	     46.83330004	      0.00000000	      0.00000000
      0.99400000	     -1.33880309	     -4.52545173	     -2.50928553	      1.10954330	      0.93179143	      0.46813501	     15.57073136	      1.62156694	     -8.87401701	     19.39470144	     19.39470144	      7.19719152	     -0.29179028	     -2.74370407	      2.15309904	    -10.75825775	    -11.93121512	     28.16650048	     28.16650048	     16.64777615	     -9.48561501	     -3.01889058	     -9.14182265	      5.45323166	     -0.22782259	      2.72660267	    -15.88520986	     -4.51329249	     50.04752885	     44.93288428	      0.00000000	      0.00000000	     14.47386216	    -15.49487089	     -7.06790460	     50.74728567	     46.80055442	      0.00000000	      0.00000000
      1.00800000	     -1.35800166	     -4.47170733	     -2.07891985	      1.10956660	      0.93191825	      0.47137871	     15.17336630	      1.62914650	     -9.54462879	     19.46811284	     19.46811284	      7.78095915	      0.27979473	     -2.65942869	      3.59904356	    -11.26053560	    -10.79904479	     31.11460252	     31.11460252	     14.69639821	    -11.37969756	     -5.55500526	     -9.06642118	      5.38176101	     -0.11696444	      3.29431726	    -16.65040732	     -3.61457271	     53.30805263	     44.82261923	      0.00000000	      0.00000000	     14.43271277	    -15.05610051	     -7.00062266	     47.26681931	     46.76200947	      0.00000000	      0.00000000
      1.02200000	     -1.30555937	     -4.55041444	     -1.62163411	      1.10933351	      0.93204969	      0.47454677	     14.63548912	      1.83203598	    -10.07107371	     19.37535189	     19.37535189	      8.15151659	      0.46046723	     -2.76161360	      5.34930569	    -12.00149682	     -9.75753359	     34.76107156	     34.76107156	     13.53697092	    -12.43706769	     -6.16399917	     -9.13718417	      5.42903943	     -0.25620447	      4.80750210	    -16.89420412	     -3.80967937	     54.52108005	     44.80267651	      0.00000000	      0.00000000	     13.42623687	    -14.92027477	     -6.84545089	     46.07637079	     46.72538359	      0.00000000	      0.00000000
      1.03600000	     -1.18431710	     -4.65097248	     -1.13722840	      1.10876714	      0.93220939	      0.47758151	     14.07156893	      2.04336760	    -10.63816853	     19.32481273	     19.32481273	      8.48563667	      0.69259933	     -2.87962960	      7.19662253	    -12.71036645	     -8.62259053	     38.53379192	     38.53379192	     12.14324716	    -13.55304734	     -6.54809630	     -9.38236663	      5.44058198	     -0.25230535	      6.44015044	    -17.25283596	     -3.93279894	     55.83919916	     44.77436977	      0.00000000	      0.00000000	     12.62780214	    -14.77560773	     -6.71584983	     44.85871997	     46.69340194	      0.00000000	      0.00000000
      1.05000000	     -1.29412080	     -4.56140697	     -0.57638214	      1.10793105	      0.93196358	      0.48003900	     13.85101212	      1.94388147	    -11.43163499	     19.43587338	     19.43587338	      8.94002145	      1.27947609	     -3.14757686	      9.45610194	    -12.98337276	     -7.12446080	     42.30746715	     42.30746715	     10.47811965	    -15.08933199	     -6.65998487	     -9.27130628	      5.40122810	     -0.65682596	      7.46272068	    -17.75789674	     -3.29691037	     59.03169445	     44.66399425	      0.00000000	      0.00000000	     12.12040316	    -14.55887209	     -6.52046737	     41.48040934	     46.64282721	      0.00000000	      0.00000000
      1.06400000	     -1.31098150	     -4.68812693	     -0.03436221	      1.10689340	      0.93182672	      0.48243795	     13.41087623	      2.14935949	    -12.12483791	     19.26494536	     19.26494536	      9.26388639	      1.57500851	     -3.28781362	     11.74377857	    -13.52017554	     -5.86345746	     46.15233434	     46.15233434	      9.23099302	    -15.91150471	     -5.91512744	     -9.32250802	      5.56599130	     -0.42107159	      8.49980332	    -18.53566544	     -3.01728887	     61.46069099	     44.59807321	      0.00000000	      0.00000000	     11.80077725	    -14.10335451	     -6.32481626	     39.07206756	     46.60251655	      0.00000000	      0.00000000
      1.07800000	     -1.25428107	     -4.87279993	      0.46273838	      1.10563002	      0.93183544	      0.48466834	     12.87934568	      2.45677403	    -12.60678082	     19.00998275	     19.00998275	      9.52912925	      1.76657189	     -3.36133297	     13.92857139	    -14.04693201	     -4.68485906	     49.67722108	     49.67722108	      7.89397468	    -16.47487894	     -5.50578441	     -9.55138404	      5.78170031	     -0.12143584	     10.01774843	    -19.15920310	     -3.22956747	     62.60198315	     44.58038825	      0.00000000	      0.00000000	     11.01930091	    -13.66995687	     -6.18858681	     38.09418563	     46.57117280	      0.00000000	      0.00000000
      1.09200000	     -1.34829625	     -4.88118151	      1.00971913	      1.10418625	      0.93174950	      0.48638987	     12.53512370	      2.48427495	    -13.34400751	     18.79447684	     18.79447684	      9.77616427	      2.30696352	     -3.77009469	     16.44290990	    -14.13346550	     -3.34601889	     53.25098487	     53.25098487	      8.57247961	    -16.23951572	     -0.09386214	     -9.56925818	      5.90113713	      0.37575070	     10.39432497	    -20.36568302	     -2.54692980	     66.42148485	     44.49053201	      0.00000000	      0.00000000	     11.33373427	    -13.00960415	     -5.87689138	     34.13010488	     46.52039467	      0.00000000	      0.00000000
      1.10600000	     -1.36873698	     -5.03510686	      1.50378064	      1.10269716	      0.93184412	      0.48812562	     12.05865536	      2.76185289	    -13.81136219	     18.43214036	     18.43214036	      9.99897156	      2.43901614	     -3.81142821	     18.58412182	    -14.43165963	     -2.37248675	     55.87051106	     55.87051106	      7.55325907	    -16.60987899	      0.40769429	     -9.67745265	      6.12184189	      0.52405794	     12.03892891	    -20.74180743	     -2.96221125	     67.46967565	     44.48577412	      0.00000000	      0.00000000	     10.25209823	    -12.65513809	     -5.77014672	     33.33232803	     46.48741403	      0.00000000	      0.00000000
      1.12000000	     -1.40395716	     -5.04670307	      1.96883934	      1.10110105	      0.93208592	      0.48946856	     11.57177519	      2.83065997	    -14.43535989	     18.01597542	     18.01597542	     10.10921923	      2.92655538	     -4.24599203	     20.75653940	    -14.40934298	     -1.44363727	     58.23784975	     58.23784975	      8.34615592	    -16.36191170	      4.89784845	     -9.81098228	      6.25886178	      0.72099305	     13.26148162	    -21.41684005	     -2.82104360	     69.94076984	     44.47229578	      0.00000000	      0.00000000	      9.61439539	    -12.23432579	     -5.49941145	     31.29920859	     46.43331331	      0.00000000	      0.00000000
      1.13400000	     -1.49103016	     -5.10013504	      2.41096528	      1.09946728	      0.93240584	      0.49081094	     11.05821757	      3.02707117	    -14.82388734	     17.40654033	     17.40654033	     10.22692017	      3.10683605	     -4.23212534	     22.70668086	    -14.47671845	     -0.80883473	     59.65259969	     59.65259969	      7.84318174	    -16.58901537	      5.36118915	     -9.87019053	      6.39452401	      0.83431778	     14.86819790	    -21.70675556	     -3.15875394	     71.03931314	     44.46886295	      0.00000000	      0.00000000	      8.44043318	    -11.90175053	     -5.38791446	     30.58747394	     46.39596646	      0.00000000	      0.00000000
      1.14800000	     -1.56746126	     -5.12179867	      2.81695722	      1.09781001	      0.93284475	      0.49196752	     10.51184212	      3.18775196	    -15.21921311	     16.75139905	     16.75139905	     10.29923855	      3.39176773	     -4.27591458	     24.47972884	    -14.44443906	     -0.31444509	     60.40026319	     60.40026319	      7.65976644	    -16.80055021	      5.99626517	     -9.96342575	      6.50343837	      0.98546938	     16.45273559	    -22.02745873	     -3.32297086	     72.29690628	     44.45413505	      0.00000000	      0.00000000	      7.24610362	    -11.54865226	     -5.25204344	     29.88664501	     46.35455742	      0.00000000	      0.00000000
      1.16200000	     -1.63056080	     -5.04908693	      3.17610040	      1.09616379	      0.93341919	      0.49291726	      9.89139923	      3.25591443	    -15.56571914	     15.98843815	     15.98843815	     10.31248872	      3.76158248	     -4.46372366	     26.04086312	    -14.29337260	     -0.04867050	     60.47285741	     60.47285741	      7.86160655	    -16.91941207	      6.95716591	    -10.12353912	      6.56380139	      1.11976258	     17.97812644	    -22.35883498	     -3.27767803	     73.78857226	     44.43430456	      0.00000000	      0.00000000	      6.00806752	    -11.23145922	     -5.04700324	     29.27399461	     46.30050913	      0.00000000	      0.00000000
